<svg xmlns="http://www.w3.org/2000/svg" viewBox="0 0 32 32" width="32" height="32">
  <defs>
    <linearGradient id="linkGradient" x1="0%" y1="0%" x2="100%" y2="100%">
      <stop offset="0%" style="stop-color:#3b82f6;stop-opacity:1" />
      <stop offset="100%" style="stop-color:#8b5cf6;stop-opacity:1" />
    </linearGradient>
  </defs>
  <rect width="32" height="32" rx="6" fill="url(#linkGradient)"/>
  <g fill="white">
    <!-- Link icon representation -->
    <path d="M12 8a2 2 0 0 0-2 2v2h2v-2h8v2h2v-2a2 2 0 0 0-2-2H12z"/>
    <path d="M10 14v8a2 2 0 0 0 2 2h8a2 2 0 0 0 2-2v-8h-2v8H12v-8h-2z"/>
    <rect x="8" y="12" width="16" height="2" rx="1"/>
  </g>
</svg>
